#N canvas 667 48 1076 664 10;
#X obj 11 12 widget-spinConnect \$0;
#X obj 26 203 hsl 128 25 0 0.1 0 0 \$0-randomCoeff \$0-randomCoeff-set
randomCoeff 5 12 1 18 -262144 -1 -191407 0 1;
#X floatatom 157 212 5 0 0 0 - #0-randomCoeff-set #0-randomCoeff;
#X obj 733 93 widget-nodeEditor \$0;
#X obj 344 11 cnv 15 250 42 empty empty =Holofields= 6 24 1 44 -228856
-99865 0;
#X msg 706 62 thinkPad5;
#X obj 469 64 tgl 25 0 \$0-playVideo \$0-playVideo-set play/pause-VIDEO
35 12 1 16 -262144 -1 -1 1 1;
#X obj 733 373 subwidget-PAT \$0;
#X msg 733 353 cloud;
#X obj 461 471 list prepend /cloud;
#X obj 531 516 s \$0-to-SPIN;
#X obj 461 447 paramInterpolator 100;
#X obj 461 394 list prepend 1;
#X obj 24 282 rgbaPicker 1 1 1 1;
#X obj 733 334 loadbang;
#X msg 780 62 bgVideo;
#X obj 584 471 list prepend /bgVideo;
#N canvas 73 70 1190 947 TUNER 0;
#X obj 261 433 s \$0-to-SPIN;
#X obj 518 49 vradio 11 1 0 14 empty empty empty 0 -8 0 10 -262144
-1 -1 0;
#X text 532 145 9) QUAD_STRIP;
#X text 532 134 8) QUADS;
#X text 532 123 7) TRIANGLE_FAN;
#X text 532 112 6) TRIANGLE_STRIP;
#X text 532 101 5) TRIANGLES;
#X text 532 90 4) LINE_LOOP;
#X text 532 68 2) LINES;
#X text 532 57 1) POINTS;
#X text 532 46 0) NONE;
#X text 532 79 3) LINE_STRIP;
#X text 532 178 12) BOXES;
#X text 532 167 11) LIGHTPOINTS;
#X text 532 156 10) POLYGON;
#X msg 518 207 /cloud setDrawMode \$1;
#X text 532 189 13) CUSTOM;
#X text 499 30 Try different draw modes:;
#X msg 52 137 /cloud setColor \$1 \$2 \$3 \$4;
#X msg 130 179 /cloud setColorMode 1;
#X obj 482 354 cnv 15 150 25 empty drawMode-cnv TRIANGLE_STRIP 10 12
0 18 -233017 -66577 0;
#X msg 677 526 \; drawMode-cnv label \$1;
#X msg 735 500 NONE;
#X obj 677 417 symbol;
#X obj 735 207 sel 0 1 2 3 4 5 6 7 8 9 10 11 12 13;
#X msg 749 480 POINTS;
#X msg 764 460 LINES;
#X msg 779 440 LINE_STRIP;
#X msg 794 420 LINE_LOOP;
#X msg 808 400 TRIANGLES;
#X msg 823 380 TRIANGLE_STRIP;
#X msg 838 360 TRIANGLE_FAN;
#X msg 853 340 QUADS;
#X msg 868 320 QUAD_STRIP;
#X msg 882 300 POLYGON;
#X msg 897 280 LIGHTPOINTS;
#X msg 912 260 BOXES;
#X msg 927 240 CUSTOM;
#X obj 142 581 interpolate3D;
#X msg 208 527 -0.07 1.16 0.25;
#X msg 244 553 -0.25 -3 0.3;
#X msg 137 606 /thinkPad5 setTranslation \$1 \$2 \$3;
#X obj 100 527 hsl 80 25 0 1 0 0 empty empty empty -2 -8 0 10 -262144
-1 -1 0 1;
#X obj 31 58 rgbaPicker 1 1 1 1;
#X obj 612 770 s \$0-to-SPIN;
#X obj 718 780 nbx 5 14 -1e+37 1e+37 0 0 empty empty empty 0 -8 0 10
-262144 -1 -1 0 256;
#X msg 599 625 /cloudShader setShader ~/src/pdsheefa/examples/Resources/shaders/gn.bricks.jxs
;
#X msg 551 605 createStateSet cloudShader Shader;
#X msg 772 744 /cloudShader debug;
#X msg 676 700 /cloud setStateSet cloudShader;
#X msg 717 797 /cloudShader setUniform_float width \$1;
#X msg 691 721 /cloud setStateSet NULL;
#X msg 535 823 deleteNode cloudShader;
#X msg 370 826 /cloud debug;
#X floatatom 784 775 5 0 0 0 - - -;
#X msg 619 656 /cloudShader setShader ~/src/pdsheefa/examples/Resources/shaders/cf.sobel.jxs
;
#X connect 1 0 15 0;
#X connect 1 0 24 0;
#X connect 15 0 0 0;
#X connect 18 0 0 0;
#X connect 19 0 0 0;
#X connect 22 0 23 0;
#X connect 23 0 21 0;
#X connect 24 0 22 0;
#X connect 24 1 25 0;
#X connect 24 2 26 0;
#X connect 24 3 27 0;
#X connect 24 4 28 0;
#X connect 24 5 29 0;
#X connect 24 6 30 0;
#X connect 24 7 31 0;
#X connect 24 8 32 0;
#X connect 24 9 33 0;
#X connect 24 10 34 0;
#X connect 24 11 35 0;
#X connect 24 12 36 0;
#X connect 24 13 37 0;
#X connect 25 0 23 0;
#X connect 26 0 23 0;
#X connect 27 0 23 0;
#X connect 28 0 23 0;
#X connect 29 0 23 0;
#X connect 30 0 23 0;
#X connect 31 0 23 0;
#X connect 32 0 23 0;
#X connect 33 0 23 0;
#X connect 34 0 23 0;
#X connect 35 0 23 0;
#X connect 36 0 23 0;
#X connect 37 0 23 0;
#X connect 38 0 41 0;
#X connect 39 0 38 1;
#X connect 40 0 38 2;
#X connect 42 0 38 0;
#X connect 43 0 18 0;
#X connect 45 0 50 0;
#X connect 46 0 44 0;
#X connect 47 0 44 0;
#X connect 48 0 44 0;
#X connect 49 0 44 0;
#X connect 50 0 44 0;
#X connect 51 0 44 0;
#X connect 52 0 44 0;
#X connect 53 0 44 0;
#X connect 55 0 44 0;
#X restore 344 64 pd TUNER;
#X obj 26 140 hsl 128 25 0.2 20 1 0 \$0-pointSize \$0-pointSize-set
pointSize 5 12 1 18 -262144 -1 -191407 12700 1;
#X floatatom 157 149 5 0 0 0 - #0-pointSize-set #0-pointSize;
#X obj 26 172 hsl 128 25 0.0005 0.1 1 0 \$0-voxelSize \$0-voxelSize-set
voxelSize 5 12 1 18 -262144 -1 -191407 1661 1;
#X floatatom 157 181 5 0 0 0 - #0-voxelSize-set #0-voxelSize;
#X obj 173 88 tgl 30 0 \$0-UI-tgl \$0-UI-tgl-set updateUI? -5 -10 0
10 -262144 -1 -1 1 1;
#X obj 26 233 hsl 128 25 0 10 0 0 \$0-distCrop \$0-distCrop-set distCrop
5 12 1 18 -262144 -1 -191407 0 1;
#X floatatom 157 242 5 0 0 0 - #0-distCrop-set #0-distCrop;
#X obj 24 265 r \$0-color-set;
#X obj 24 321 s \$0-color;
#X obj 29 391 vradio 11 1 0 14 \$0-drawMode \$0-drawMode-set DrawMode
-5 -10 1 18 -262144 -1 -1 11;
#X text 43 487 9) QUAD_STRIP;
#X text 43 476 8) QUADS;
#X text 43 465 7) TRIANGLE_FAN;
#X text 43 454 6) TRIANGLE_STRIP;
#X text 43 443 5) TRIANGLES;
#X text 43 432 4) LINE_LOOP;
#X text 43 410 2) LINES;
#X text 43 399 1) POINTS;
#X text 43 388 0) NONE;
#X text 43 421 3) LINE_STRIP;
#X text 43 520 12) BOXES;
#X text 43 509 11) LIGHTPOINTS;
#X text 43 498 10) POLYGON;
#X text 43 531 13) CUSTOM;
#N canvas 305 371 777 700 CREATE_SCENE 0;
#X obj 60 18 inlet;
#X obj 120 251 spin.toCamera \$0;
#X obj 34 469 thisdir;
#X obj 34 61 t b b b;
#X msg 195 102 createNode cloud PointCloud \, /cloud setURI kinect://1
;
#X msg 223 143 /cloud setDistCrop 0 3.78 \, /cloud setDrawMode 11 \,
/cloud setColorMode 1 \, /cloud setOrientation 0 180 0;
#X obj 60 155 delay 1000;
#X msg 139 328 0 2 10 0.01 0 1 1 1 1 1 1.5;
#X msg 34 492 createNode bgVideo ShapeNode \, /bgVideo setShape 6 \,
/bgVideo setTranslation 0 11 0 \, /bgVideo setOrientation 0 180 0 \,
/bgVideo setScale 5 5 5 \, /bgVideo setStateSetFromFile \$1/souk_final.avi
\, /souk_final.avi setLighting 0;
#X obj 12 27 bng 15 250 50 0 empty empty empty 17 7 0 10 -262144 -1
-1;
#X obj 139 358 s \$0-preset;
#X obj 34 561 s \$0-to-SPIN-TCP;
#X obj 176 192 s \$0-to-SPIN-TCP;
#X obj 34 384 bng 25 250 50 0 empty empty empty 17 7 0 10 -262144 -1
-1;
#X obj 34 360 delay 30000;
#X obj 440 622 s \$0-audioToggle;
#X obj 440 441 t b;
#X msg 440 599 1;
#X obj 514 475 delay 100;
#X obj 440 418 delay 5000;
#X text 373 389 start audio after video is surely loaded;
#X msg 514 505 \; pd dsp 1 \;;
#X obj 111 455 s start_presets;
#X obj 602 548 s g_masterGain-set;
#X obj 602 524 line;
#X msg 602 500 -99 \, 0 2000;
#X msg 120 231 setTranslation 0.25 1.5 -0.25 \, setOrientation 0 0
0;
#X connect 0 0 3 0;
#X connect 2 0 8 0;
#X connect 3 0 5 0;
#X connect 3 0 6 0;
#X connect 3 0 14 0;
#X connect 3 1 4 0;
#X connect 4 0 12 0;
#X connect 5 0 12 0;
#X connect 6 0 26 0;
#X connect 6 0 7 0;
#X connect 7 0 10 0;
#X connect 8 0 11 0;
#X connect 9 0 3 0;
#X connect 13 0 2 0;
#X connect 13 0 19 0;
#X connect 13 0 22 0;
#X connect 14 0 13 0;
#X connect 16 0 18 0;
#X connect 16 0 17 0;
#X connect 17 0 15 0;
#X connect 18 0 21 0;
#X connect 18 0 25 0;
#X connect 19 0 16 0;
#X connect 24 0 23 0;
#X connect 25 0 24 0;
#X connect 26 0 1 0;
#X restore 11 89 pd CREATE_SCENE;
#N canvas 253 485 1033 522 GUTS 0;
#X obj 112 81 r \$0-voxelSize;
#X obj 135 132 r \$0-randomCoeff;
#X obj 156 181 r \$0-pointSize;
#X obj 449 126 r \$0-from-SPIN;
#X obj 449 203 route /cloud;
#X obj 278 395 spigot 0;
#X obj 598 325 r \$0-UI-tgl;
#X obj 438 395 spigot 0;
#X obj 166 231 r \$0-distCrop;
#X obj 596 395 spigot 0;
#X obj 765 395 spigot 0;
#X obj 438 419 sendset \$0-voxelSize-set;
#X obj 278 419 sendset \$0-pointSize-set;
#X obj 596 419 sendset \$0-randomCoeff-set;
#X obj 873 328 s \$0-color-set;
#X obj 184 283 r \$0-color;
#X msg 184 303 setColor \$1 \$2 \$3 \$4;
#X obj 134 389 s \$0-to-SPIN;
#X obj 134 359 list prepend /cloud;
#X msg 156 203 setPointSize \$1;
#X msg 135 154 setRandomCoeff \$1;
#X msg 112 102 setVoxelSize \$1;
#X obj 655 65 r \$0-playVideo;
#X obj 655 114 s \$0-to-SPIN-TCP;
#X obj 78 33 r \$0-drawMode;
#X msg 78 54 setDrawMode \$1;
#X obj 449 232 route setPointSize setVoxelSize setRandomCoeff setDistCrop
setColor setDrawMode;
#X obj 877 300 sendset \$0-drawMode-set;
#X obj 845 63 loadbang;
#X msg 845 85 1;
#X obj 845 110 sendset \$0-playVideo-set;
#X msg 655 93 /souk_final.avi setPlay \$1;
#X msg 488 63 /souk_final.avi rewind;
#X obj 488 41 r LOOP!;
#X obj 766 419 sendset \$0-distCrop-set;
#X msg 166 253 setDistCrop \$1;
#X connect 0 0 21 0;
#X connect 1 0 20 0;
#X connect 2 0 19 0;
#X connect 3 0 4 0;
#X connect 4 0 26 0;
#X connect 5 0 12 0;
#X connect 6 0 5 1;
#X connect 6 0 7 1;
#X connect 6 0 9 1;
#X connect 6 0 10 1;
#X connect 7 0 11 0;
#X connect 8 0 35 0;
#X connect 9 0 13 0;
#X connect 10 0 34 0;
#X connect 15 0 16 0;
#X connect 16 0 18 0;
#X connect 18 0 17 0;
#X connect 19 0 18 0;
#X connect 20 0 18 0;
#X connect 21 0 18 0;
#X connect 22 0 31 0;
#X connect 24 0 25 0;
#X connect 25 0 18 0;
#X connect 26 0 5 0;
#X connect 26 1 7 0;
#X connect 26 2 9 0;
#X connect 26 3 10 0;
#X connect 26 4 14 0;
#X connect 26 5 27 0;
#X connect 28 0 29 0;
#X connect 29 0 30 0;
#X connect 31 0 23 0;
#X connect 32 0 23 0;
#X connect 33 0 32 0;
#X connect 35 0 18 0;
#X restore 344 84 pd GUTS;
#X obj 11 59 bng 25 250 50 0 empty empty <-START! 35 13 0 20 -260097
-1 -86853;
#X obj 378 315 thisdir;
#X obj 363 295 bng 12 250 50 0 empty empty empty 17 7 0 10 -262144
-1 -1;
#X obj 344 385 coll;
#C restore;
#X obj 453 183 bng 25 250 50 0 empty empty empty 17 7 0 10 -262144
-1 -1;
#X obj 378 295 loadbang;
#X obj 453 216 t b b b;
#X obj 369 216 delay 60000;
#X obj 19 574 cnv 15 100 60 empty preset-cnv distant_shadow 11 20 0.001 0 0 0 0 1 1 0 2 0 0 180 0
20 12 0 14 -233017 -66577 0;
#X msg 344 500 \; preset-cnv label \$1;
#X obj 344 479 list2symbol;
#X obj 244 287 bng 30 250 50 0 empty empty RandomPreset 35 15 0 14
-204786 -1 -13381;
#X msg 378 336 read \$1/presets.coll;
#X obj 427 368 list split 1;
#X obj 244 363 nbx 2 30 -1e+37 1e+37 0 0 empty empty empty 0 -8 1 26
-204786 -258113 -13381 6 256;
#X obj 542 322 random 0 10;
#X text 557 395 transition duration (sec);
#N canvas 433 111 977 922 PRESETS-CREATOR 0;
#X obj 195 639 t a b;
#X text 480 73 md sz vox r R G B A vid;
#X text 164 28 md siz voxl r R G B A vid;
#X msg 20 593 dump;
#X obj 185 694 list prepend store;
#X obj 193 727 list trim;
#X obj 442 707 thisdir;
#X obj 442 676 bng 25 250 50 0 empty empty SAVE 30 12 0 20 -262144
-1 -1;
#X msg 443 731 write \$1/presets.coll;
#X msg 82 619 clear;
#X text 360 8 drawmode pointsize voxelsize randomcoeff red green blue
alpha videoalpha distance;
#X text 404 272 md sz voxel r R G B A vid;
#X obj 173 761 outlet;
#X msg 90 76 0 small_boxes 12 2 0.1 0 1 1 1 1 1 0 0 0 0 180 0;
#X msg 125 105 1 distant_line_figure 2 10 0.01 0 1 1 1 1 1 0 1.5 0
0 180 0;
#X msg 170 134 2 super_sparse_yellow_dots 11 10 0.4 0 1 1 0 1 1 0 0
0 0 180 0;
#X msg 218 181 3 sparse_lines 4 10 0.2 0 1 1 1 1 1 0 0 0 0 180 0;
#X msg 259 208 4 red_dot_guy 11 20 0.1 0 1 0 0 1 1 0 0 0 0 180 0;
#X msg 280 241 5 tiny_white_wave 11 0.95 0.002 0 1 1 1 1 1 0 0 0 0
180 0;
#X msg 303 289 6 distant_shadow 11 20 0.001 0 0 0 0 1 1 0 2 0 0 180
0;
#X msg 315 319 7 big_shadow 11 20 0.001 0 0 0 0 1 1 0 0 0 0 180 0;
#X msg 324 352 8 side_guy 11 2.6 0.004 0 1 1 1 1 1 2.35 3.65 0.7 20
180 90;
#X msg 322 386 9 topview 11 2.6 0.002 0 1 1 1 1 1 0.25 3.2 -3.1 90
0 0;
#X msg 332 422 10 small_dots 11 2.5 0.08 0 1 1 1 1 1 0 0 0 0 180 0
;
#X obj 721 231 vradio 15 1 0 20 empty empty empty 0 -8 0 10 -262144
-1 -1 11;
#X floatatom 734 560 5 0 0 0 - - -;
#X text 740 349 side;
#X text 740 289 red;
#X text 742 231 small_boxes;
#X text 740 368 topview;
#X text 742 382 small_dots;
#X text 741 306 tiny_white_wave;
#X text 743 248 distant_line_figure;
#X text 744 276 sparse_lines;
#X msg 335 470 11 triangle_man 3 10 0.5 0 1 1 1 1 1 0 1.5 0 0 180 0
;
#X text 742 397 triangle_man;
#X text 742 321 distant_shadow;
#X text 742 336 big_shadow;
#X text 742 262 super_sparse_yellow_dots;
#X connect 0 0 4 0;
#X connect 3 0 12 0;
#X connect 4 0 5 0;
#X connect 5 0 12 0;
#X connect 6 0 8 0;
#X connect 7 0 6 0;
#X connect 8 0 12 0;
#X connect 9 0 12 0;
#X connect 13 0 0 0;
#X connect 14 0 0 0;
#X connect 15 0 0 0;
#X connect 16 0 0 0;
#X connect 17 0 0 0;
#X connect 18 0 0 0;
#X connect 19 0 0 0;
#X connect 20 0 0 0;
#X connect 21 0 0 0;
#X connect 22 0 0 0;
#X connect 23 0 0 0;
#X connect 24 0 25 0;
#X connect 25 0 12 0;
#X connect 34 0 0 0;
#X restore 344 104 pd PRESETS-CREATOR;
#X text 212 217 delay between presets ->;
#N canvas 455 283 933 702 AUDIO 0;
#X obj 111 172 symbol;
#X msg 111 192 open \$1;
#X obj 84 215 readsf~ 2;
#X obj 84 76 t f b;
#X obj 84 58 tgl 15 0 empty \$0-ambientLoops-tgl-set empty 17 7 0 10
-262144 -1 -1 1 1;
#X obj 135 235 bng 15 250 50 0 empty empty empty 17 7 0 10 -262144
-1 -1;
#X msg 46 250 1;
#X obj 108 318 throw~ ambR~;
#X obj 83 340 throw~ ambL~;
#X obj 558 223 vsl 20 100 -99 18 0 1 empty empty Output -14 -10 0 12
-260818 -1 -1 8377 1;
#X floatatom 558 329 5 0 0 1 db - -;
#X obj 406 427 stgain2~;
#X msg 524 231 0;
#X text 550 229 -----0db;
#X msg 494 231 -99;
#X obj 391 316 catch~ ambL~;
#X obj 424 344 catch~ ambR~;
#X obj 558 37 inlet;
#X obj 417 454 dac~;
#X obj 233 297 s LOOP!;
#X obj 111 110 thisdir;
#X msg 111 136 \$1/souk_final.wav;
#X obj 84 27 inlet;
#X obj 233 88 sel 1;
#X obj 261 409 env~ 8192 4096;
#X floatatom 261 432 5 0 0 0 - - -;
#X floatatom 122 487 5 0 0 0 - - -;
#X obj 120 430 env~ 32768 16384;
#X obj 145 455 env~ 16384 8192;
#X floatatom 173 487 5 0 0 0 - - -;
#X obj 202 571 fiddle~;
#X obj 215 601 bng 15 250 50 0 empty empty empty 0 -6 0 8 -262144 -1
-1;
#X text 234 601 <-- banged on attack;
#X floatatom 193 623 5 0 0 0 - - -;
#X obj 656 373 bonk~;
#X obj 739 420 bng 15 250 50 0 empty empty empty 17 7 0 10 -262144
-1 -1;
#X obj 445 542 bonk~;
#X floatatom 438 578 5 0 0 0 - - -;
#X obj 486 580 bng 15 250 50 0 empty empty empty 17 7 0 10 -262144
-1 -1;
#X msg 685 256 thresh 15 30;
#X floatatom 650 493 8 0 0 0 - - -;
#X obj 686 456 / 30;
#X msg 703 303 thresh 10 20;
#X obj 694 225 loadbang;
#X obj 826 409 outlet;
#X connect 0 0 1 0;
#X connect 1 0 2 0;
#X connect 2 0 8 0;
#X connect 2 1 7 0;
#X connect 2 2 5 0;
#X connect 3 0 2 0;
#X connect 3 1 20 0;
#X connect 4 0 3 0;
#X connect 5 0 6 0;
#X connect 5 0 19 0;
#X connect 6 0 4 0;
#X connect 9 0 10 0;
#X connect 9 0 11 2;
#X connect 11 0 18 0;
#X connect 11 1 18 1;
#X connect 12 0 9 0;
#X connect 14 0 9 0;
#X connect 15 0 11 0;
#X connect 15 0 34 0;
#X connect 16 0 11 1;
#X connect 16 0 34 0;
#X connect 17 0 9 0;
#X connect 20 0 21 0;
#X connect 21 0 0 0;
#X connect 22 0 4 0;
#X connect 22 0 23 0;
#X connect 23 0 19 0;
#X connect 24 0 25 0;
#X connect 27 0 26 0;
#X connect 28 0 29 0;
#X connect 30 0 33 0;
#X connect 30 1 31 0;
#X connect 34 0 41 0;
#X connect 34 1 35 0;
#X connect 34 1 44 0;
#X connect 36 0 37 0;
#X connect 36 1 38 0;
#X connect 39 0 34 0;
#X connect 42 0 34 0;
#X connect 43 0 39 0;
#X restore 597 244 pd AUDIO;
#X obj 642 117 vsl 30 100 -99 18 0 0 empty g_masterGain-set MASTER
-17 -12 1 12 -257985 -1 -86277 8377 1;
#X floatatom 642 220 5 0 0 0 - - -;
#X text 633 123 -------0db;
#X obj 597 208 tgl 25 0 empty \$0-audioToggle empty 17 7 0 10 -262144
-1 -1 1 1;
#X obj 475 422 r \$0-preset;
#X obj 597 267 bng 20 250 50 0 empty empty empty 17 7 0 10 -262144
-258113 -1;
#X obj 453 157 r start_presets;
#X obj 738 600 s \$0-randomCoeff;
#X obj 738 579 line 50;
#X obj 738 529 pack 0 0;
#X msg 738 557 \$1 \, \$2 300;
#X msg 738 493 0.03;
#X msg 578 368 0.001;
#X msg 579 344 5;
#X obj 244 326 random 12;
#X text 782 495 <- attack purturbation;
#X connect 0 0 44 0;
#X connect 5 0 3 0;
#X connect 8 0 7 0;
#X connect 9 0 10 0;
#X connect 11 0 9 0;
#X connect 11 1 16 0;
#X connect 12 0 11 0;
#X connect 13 0 26 0;
#X connect 14 0 8 0;
#X connect 15 0 3 0;
#X connect 16 0 10 0;
#X connect 25 0 13 1;
#X connect 44 0 42 0;
#X connect 45 0 56 0;
#X connect 46 0 45 0;
#X connect 47 0 54 0;
#X connect 47 0 57 0;
#X connect 48 0 50 0;
#X connect 49 0 45 0;
#X connect 50 0 51 0;
#X connect 50 1 55 0;
#X connect 50 2 59 0;
#X connect 51 0 48 0;
#X connect 54 0 53 0;
#X connect 55 0 78 0;
#X connect 56 0 47 0;
#X connect 57 1 12 0;
#X connect 59 0 12 1;
#X connect 61 0 47 0;
#X connect 63 0 69 0;
#X connect 64 0 65 0;
#X connect 65 0 63 1;
#X connect 67 0 63 0;
#X connect 68 0 11 0;
#X connect 69 0 75 0;
#X connect 70 0 48 0;
#X connect 72 0 71 0;
#X connect 73 0 74 0;
#X connect 74 0 72 0;
#X connect 75 0 73 0;
#X connect 76 0 12 1;
#X connect 77 0 12 1;
#X connect 78 0 47 0;
#X connect 78 0 58 0;
