#N canvas 12 366 1644 653 10;
#X obj 86 32 inlet;
#X obj 502 629 outlet;
#X msg 190 368 setPointSize \$1;
#X obj 843 63 * 1000;
#X obj 226 288 anyreg pointsize;
#X obj 190 323 pack 0 0;
#X obj 188 288 t b f;
#X obj 360 323 pack 0 0;
#X obj 358 288 t b f;
#X obj 396 288 anyreg voxelsize;
#X msg 360 368 setVoxelSize \$1;
#X obj 794 312 pack 0 0;
#X obj 782 270 t b f;
#X obj 899 312 pack 0 0;
#X obj 887 270 t b f;
#X obj 1026 312 pack 0 0;
#X obj 1014 270 t b f;
#X obj 1142 312 pack 0 0;
#X obj 1130 270 t b f;
#X msg 925 415 setColor \$1 \$2 \$3 \$4;
#X obj 821 270 anyreg red;
#X obj 926 270 anyreg green;
#X obj 1053 270 anyreg blue;
#X obj 1169 270 anyreg alpha;
#X obj 190 344 line 0 \$1;
#X obj 360 344 line 0 \$1;
#X obj 795 334 line 0 \$1;
#X obj 900 333 line 0 \$1;
#X obj 1026 333 line 0 \$1;
#X obj 1139 333 line 0 \$1;
#X msg 36 217 setDrawMode \$1;
#X obj 1280 535 outlet;
#X obj 530 323 pack 0 0;
#X obj 528 288 t b f;
#X obj 530 344 line 0 \$1;
#X obj 1295 276 pack 0 0;
#X obj 1294 234 t b f;
#X obj 1295 297 line 0 \$1;
#X obj 1332 234 anyreg videoalpha;
#X msg 1295 321 setColor 1 1 1 \$1;
#X obj 566 288 anyreg randomcoeff;
#X msg 530 368 setRandomCoeff \$1;
#X obj 925 392 hotpack7 0 0 0 0;
#X obj 554 64 unpack 0 0 0 0 0 0 0 0 0 0 0;
#X text 538 21 time drawmode pointsize voxelsize randomcoeff red green
blue alpha videoalpha distance;
#X obj 1450 276 pack 0 0;
#X obj 1449 234 t b f;
#X obj 1450 297 line 0 \$1;
#X obj 1487 234 anyreg distance;
#X msg 1450 322 setTranslation 0 \$1 0;
#X connect 0 0 43 0;
#X connect 2 0 1 0;
#X connect 3 0 6 0;
#X connect 3 0 8 0;
#X connect 3 0 12 0;
#X connect 3 0 14 0;
#X connect 3 0 16 0;
#X connect 3 0 18 0;
#X connect 3 0 33 0;
#X connect 3 0 36 0;
#X connect 3 0 46 0;
#X connect 4 0 5 0;
#X connect 5 0 24 0;
#X connect 6 0 4 0;
#X connect 6 1 5 1;
#X connect 7 0 25 0;
#X connect 8 0 9 0;
#X connect 8 1 7 1;
#X connect 9 0 7 0;
#X connect 10 0 1 0;
#X connect 11 0 26 0;
#X connect 12 0 20 0;
#X connect 12 1 11 1;
#X connect 13 0 27 0;
#X connect 14 0 21 0;
#X connect 14 1 13 1;
#X connect 15 0 28 0;
#X connect 16 0 22 0;
#X connect 16 1 15 1;
#X connect 17 0 29 0;
#X connect 18 0 23 0;
#X connect 18 1 17 1;
#X connect 19 0 1 0;
#X connect 20 0 11 0;
#X connect 21 0 13 0;
#X connect 22 0 15 0;
#X connect 23 0 17 0;
#X connect 24 0 2 0;
#X connect 25 0 10 0;
#X connect 26 0 42 0;
#X connect 27 0 42 1;
#X connect 28 0 42 2;
#X connect 29 0 42 3;
#X connect 30 0 1 0;
#X connect 32 0 34 0;
#X connect 33 0 40 0;
#X connect 33 1 32 1;
#X connect 34 0 41 0;
#X connect 35 0 37 0;
#X connect 36 0 38 0;
#X connect 36 1 35 1;
#X connect 37 0 39 0;
#X connect 38 0 35 0;
#X connect 39 0 31 0;
#X connect 40 0 32 0;
#X connect 41 0 1 0;
#X connect 42 0 19 0;
#X connect 43 0 3 0;
#X connect 43 1 30 0;
#X connect 43 2 4 0;
#X connect 43 3 9 0;
#X connect 43 4 40 0;
#X connect 43 5 20 0;
#X connect 43 6 21 0;
#X connect 43 7 22 0;
#X connect 43 8 23 0;
#X connect 43 9 38 0;
#X connect 43 10 48 0;
#X connect 45 0 47 0;
#X connect 46 0 48 0;
#X connect 46 1 45 1;
#X connect 47 0 49 0;
#X connect 48 0 45 0;
#X connect 49 0 1 0;
