#N canvas 24 171 1736 691 10;
#X obj 86 32 inlet;
#X obj 502 629 outlet;
#X msg 156 335 setPointSize \$1;
#X obj 1117 174 * 1000;
#X obj 192 255 anyreg pointsize;
#X obj 156 290 pack 0 0;
#X obj 154 255 t b f;
#X obj 326 290 pack 0 0;
#X obj 324 255 t b f;
#X obj 362 255 anyreg voxelsize;
#X msg 326 335 setVoxelSize \$1;
#X obj 549 424 pack 0 0;
#X obj 537 382 t b f;
#X obj 654 424 pack 0 0;
#X obj 642 382 t b f;
#X obj 781 424 pack 0 0;
#X obj 769 382 t b f;
#X obj 897 424 pack 0 0;
#X obj 885 382 t b f;
#X msg 680 527 setColor \$1 \$2 \$3 \$4;
#X obj 576 382 anyreg red;
#X obj 681 382 anyreg green;
#X obj 808 382 anyreg blue;
#X obj 924 382 anyreg alpha;
#X obj 156 311 line 0 \$1;
#X obj 326 311 line 0 \$1;
#X obj 550 446 line 0 \$1;
#X obj 655 445 line 0 \$1;
#X obj 781 445 line 0 \$1;
#X obj 894 445 line 0 \$1;
#X msg 36 217 setDrawMode \$1;
#X obj 1265 611 outlet;
#X obj 496 290 pack 0 0;
#X obj 494 255 t b f;
#X obj 496 311 line 0 \$1;
#X obj 1087 377 pack 0 0;
#X obj 1086 335 t b f;
#X obj 1087 398 line 0 \$1;
#X obj 1124 335 anyreg videoalpha;
#X msg 1087 422 setColor 1 1 1 \$1;
#X obj 532 255 anyreg randomcoeff;
#X msg 496 335 setRandomCoeff \$1;
#X obj 680 504 hotpack7 0 0 0 0;
#X obj 1306 370 interpolate3D;
#X obj 1348 312 t a a b;
#X obj 1381 348 anyreg \$0-startPos;
#X obj 1277 335 line 0 \$1;
#X obj 1396 177 pack 0 0 0;
#X msg 1306 395 setTranslation \$1 \$2 \$3;
#X obj 998 51 unpack 0 0 0 0 0 0 0 0 0 0 0 0 0 0 0 0;
#X obj 1491 149 pack 0 0 0;
#X text 537 23 time drawmode pointsize voxelsize randomcoeff red green
blue alpha videoalpha x y z p r y;
#X obj 1540 360 interpolate3D;
#X obj 1582 302 t a a b;
#X obj 1511 325 line 0 \$1;
#X msg 1539 385 setOrientation \$1 \$2 \$3;
#X obj 1615 338 anyreg \$0-orient;
#X msg 1277 313 0 \, 1 \$1;
#X msg 1511 302 0 \, 1 \$1;
#X text 1282 240 there's a bug in the interpolation... have to click
twice;
#X connect 0 0 49 0;
#X connect 2 0 1 0;
#X connect 3 0 6 0;
#X connect 3 0 8 0;
#X connect 3 0 12 0;
#X connect 3 0 14 0;
#X connect 3 0 16 0;
#X connect 3 0 18 0;
#X connect 3 0 33 0;
#X connect 3 0 36 0;
#X connect 4 0 5 0;
#X connect 5 0 24 0;
#X connect 6 0 4 0;
#X connect 6 1 5 1;
#X connect 7 0 25 0;
#X connect 8 0 9 0;
#X connect 8 1 7 1;
#X connect 9 0 7 0;
#X connect 10 0 1 0;
#X connect 11 0 26 0;
#X connect 12 0 20 0;
#X connect 12 1 11 1;
#X connect 13 0 27 0;
#X connect 14 0 21 0;
#X connect 14 1 13 1;
#X connect 15 0 28 0;
#X connect 16 0 22 0;
#X connect 16 1 15 1;
#X connect 17 0 29 0;
#X connect 18 0 23 0;
#X connect 18 1 17 1;
#X connect 19 0 1 0;
#X connect 20 0 11 0;
#X connect 21 0 13 0;
#X connect 22 0 15 0;
#X connect 23 0 17 0;
#X connect 24 0 2 0;
#X connect 25 0 10 0;
#X connect 26 0 42 0;
#X connect 27 0 42 1;
#X connect 28 0 42 2;
#X connect 29 0 42 3;
#X connect 30 0 1 0;
#X connect 32 0 34 0;
#X connect 33 0 40 0;
#X connect 33 1 32 1;
#X connect 34 0 41 0;
#X connect 35 0 37 0;
#X connect 36 0 38 0;
#X connect 36 1 35 1;
#X connect 37 0 39 0;
#X connect 38 0 35 0;
#X connect 39 0 31 0;
#X connect 40 0 32 0;
#X connect 41 0 1 0;
#X connect 42 0 19 0;
#X connect 43 0 48 0;
#X connect 44 0 45 0;
#X connect 44 1 43 1;
#X connect 44 2 45 0;
#X connect 45 0 43 2;
#X connect 46 0 43 0;
#X connect 47 0 48 0;
#X connect 48 0 1 0;
#X connect 49 0 3 0;
#X connect 49 1 30 0;
#X connect 49 2 4 0;
#X connect 49 3 9 0;
#X connect 49 4 40 0;
#X connect 49 5 20 0;
#X connect 49 6 21 0;
#X connect 49 7 22 0;
#X connect 49 8 23 0;
#X connect 49 9 38 0;
#X connect 49 10 47 0;
#X connect 49 11 47 1;
#X connect 49 12 47 2;
#X connect 49 13 50 0;
#X connect 49 14 50 1;
#X connect 49 15 50 2;
#X connect 50 0 55 0;
#X connect 52 0 55 0;
#X connect 53 0 56 0;
#X connect 53 1 52 1;
#X connect 53 2 56 0;
#X connect 54 0 52 0;
#X connect 55 0 1 0;
#X connect 56 0 52 2;
#X connect 57 0 46 0;
#X connect 58 0 54 0;
